<svg width="37" height="40" viewBox="0 0 37 40" fill="none" xmlns="http://www.w3.org/2000/svg">
<g clip-path="url(#clip0_55_291)">
<path d="M32.1756 15.7772C33.0117 18.8976 33.0095 22.1676 32.1692 25.1736C31.3289 28.1795 29.6883 30.7865 27.4548 32.6648C25.2214 34.5432 22.4954 35.6085 19.6216 35.726C16.7477 35.8436 13.8552 35.0081 11.3096 33.3253C8.7641 31.6425 6.67993 29.1879 5.32069 26.2719C3.96145 23.3559 3.38817 20.1095 3.67337 16.9432C3.95856 13.7769 5.08941 10.8329 6.92291 8.48353C8.75641 6.13416 11.2102 4.48491 13.974 3.74435C17.6802 2.75129 21.6799 3.46114 25.0934 5.71773C28.5068 7.97432 31.0544 11.5928 32.1756 15.7772V15.7772Z" fill="#F7931A"/>
<path fill-rule="evenodd" clip-rule="evenodd" d="M11.8622 12.0319L15.3339 12.1424L15.2422 8.92947L16.9798 8.99117L17.0659 12.0718L18.4821 12.1182L18.3888 9.00563L20.1547 9.06128L20.2396 12.193C20.2396 12.193 23.086 12.1451 24.37 14.4267C25.654 16.7084 23.9915 18.5327 23.3847 18.7476C23.3847 18.7476 26.1099 19.5685 26.0699 22.6307C26.0299 25.6929 23.7018 26.8624 20.9341 26.9045L21.0482 30.1453L19.2823 30.0896L19.1949 26.8925L17.7923 26.841L17.8854 30.0596L16.1326 30.002L16.0446 26.7973L12.479 26.6767L12.7517 24.3715C12.7517 24.3715 13.7585 24.4091 14.1358 24.4095C14.513 24.4099 14.6285 23.9362 14.6169 23.4966C14.6053 23.057 14.2636 15.8112 14.2536 15.2097C14.2436 14.6082 14.0684 14.1832 13.4299 14.1683C12.7914 14.1534 11.9134 14.0981 11.9134 14.0981L11.8622 12.0319ZM17.5309 20.23L17.7112 24.4599C17.7112 24.4599 22.6022 25.0756 22.4887 22.3958C22.3752 19.716 17.5309 20.23 17.5309 20.23ZM17.4326 18.2272L17.3254 14.3359C17.3254 14.3359 21.3054 14.0873 21.3858 16.2471C21.4662 18.407 19.0314 18.2231 17.4326 18.2272Z" fill="white"/>
</g>
<defs>
<clipPath id="clip0_55_291">
<rect width="28.934" height="32.6675" fill="white" transform="translate(0 7.48868) rotate(-15)"/>
</clipPath>
</defs>
</svg>
