<svg width="31" height="31" viewBox="0 0 31 31" fill="none" xmlns="http://www.w3.org/2000/svg">
<g clip-path="url(#clip0_53_159)">
<path d="M15.5 31C24.0604 31 31 24.0604 31 15.5C31 6.93959 24.0604 0 15.5 0C6.93959 0 0 6.93959 0 15.5C0 24.0604 6.93959 31 15.5 31Z" fill="#F3BA2F"/>
<path d="M11.7374 13.9539L15.5 10.1913L19.2646 13.9558L21.4539 11.7664L15.5 5.8125L9.548 11.7645L11.7374 13.9539ZM5.8125 15.5L8.00188 13.3106L10.1913 15.5L8.00188 17.6894L5.8125 15.5ZM11.7374 17.0461L15.5 20.8087L19.2646 17.0442L21.4539 19.2326L15.5 25.1875L9.548 19.2355L9.54509 19.2326L11.7374 17.0461ZM20.8087 15.5L22.9981 13.3106L25.1875 15.5L22.9981 17.6894L20.8087 15.5ZM17.7204 15.4981H17.7223V15.5L15.5 17.7223L13.2806 15.5039L13.2767 15.5L13.2806 15.4971L13.6691 15.1077L13.858 14.9187L15.5 13.2777L17.7213 15.499L17.7204 15.4981Z" fill="white"/>
</g>
<defs>
<clipPath id="clip0_53_159">
<rect width="31" height="31" fill="white"/>
</clipPath>
</defs>
</svg>
