<svg width="32" height="32" viewBox="0 0 32 32" fill="none" xmlns="http://www.w3.org/2000/svg">
<path d="M16 32C24.8366 32 32 24.8366 32 16C32 7.16344 24.8366 0 16 0C7.16344 0 0 7.16344 0 16C0 24.8366 7.16344 32 16 32Z" fill="#2E3148"/>
<path d="M16.02 5.53003C14.725 5.53003 13.675 10.227 13.675 16.02C13.675 21.813 14.725 26.51 16.02 26.51C17.314 26.51 18.364 21.813 18.364 16.02C18.364 10.227 17.314 5.53003 16.02 5.53003ZM16.182 25.917C16.034 26.115 15.885 25.967 15.885 25.967C15.289 25.275 14.991 23.992 14.991 23.992C13.948 20.635 14.196 13.428 14.196 13.428C14.686 7.70703 15.578 6.35503 15.881 6.05503C15.912 6.02426 15.953 6.00547 15.9965 6.00199C16.0401 5.99851 16.0835 6.01057 16.119 6.03603C16.559 6.34903 16.929 7.65303 16.929 7.65303C18.019 11.701 17.92 15.501 17.92 15.501C18.019 18.809 17.374 22.511 17.374 22.511C16.877 25.325 16.182 25.917 16.182 25.917Z" fill="white"/>
<path d="M25.118 10.8001C24.473 9.67607 19.878 11.1031 14.851 13.9861C9.824 16.8691 6.278 20.1161 6.921 21.2401C7.566 22.3641 12.162 20.9371 17.189 18.0541C22.216 15.1711 25.763 11.9231 25.119 10.8001H25.118ZM7.515 21.0851C7.269 21.0551 7.325 20.8511 7.325 20.8511C7.627 19.9911 8.591 19.0931 8.591 19.0931C10.984 16.5181 17.36 13.1471 17.36 13.1471C22.566 10.7251 24.183 10.8271 24.593 10.9391C24.6353 10.9507 24.6722 10.977 24.6969 11.0133C24.7216 11.0495 24.7326 11.0934 24.728 11.1371C24.678 11.6741 23.728 12.6441 23.728 12.6441C20.762 15.6051 17.416 17.4121 17.416 17.4121C14.596 19.1441 11.063 20.4251 11.063 20.4251C8.375 21.3931 7.515 21.0851 7.515 21.0851V21.0851Z" fill="white"/>
<path d="M25.095 21.277C25.745 20.157 22.208 16.894 17.197 13.989C12.187 11.085 7.59301 9.64098 6.94401 10.763C6.29401 11.886 9.83201 15.146 14.844 18.051C19.857 20.955 24.446 22.399 25.095 21.277ZM7.37501 11.196C7.27801 10.968 7.48101 10.913 7.48101 10.913C8.37801 10.743 9.63801 11.13 9.63801 11.13C13.065 11.91 19.176 15.738 19.176 15.738C23.881 19.03 24.603 20.481 24.711 20.892C24.7219 20.9342 24.7176 20.9789 24.6988 21.0183C24.6799 21.0576 24.6478 21.089 24.608 21.107C24.118 21.332 22.803 20.997 22.803 20.997C18.753 19.911 15.514 17.922 15.514 17.922C12.604 16.352 9.72601 13.937 9.72601 13.937C7.53901 12.095 7.37601 11.197 7.37601 11.197L7.37401 11.196H7.37501Z" fill="white"/>
<path d="M15.995 17.229C16.6765 17.229 17.229 16.6765 17.229 15.995C17.229 15.3135 16.6765 14.761 15.995 14.761C15.3135 14.761 14.761 15.3135 14.761 15.995C14.761 16.6765 15.3135 17.229 15.995 17.229Z" fill="white"/>
<path d="M21.055 12.2561C21.6073 12.2561 22.055 11.8084 22.055 11.2561C22.055 10.7038 21.6073 10.2561 21.055 10.2561C20.5027 10.2561 20.055 10.7038 20.055 11.2561C20.055 11.8084 20.5027 12.2561 21.055 12.2561Z" fill="white"/>
<path d="M9.30599 14.7739C9.85828 14.7739 10.306 14.3262 10.306 13.7739C10.306 13.2216 9.85828 12.7739 9.30599 12.7739C8.75371 12.7739 8.30599 13.2216 8.30599 13.7739C8.30599 14.3262 8.75371 14.7739 9.30599 14.7739Z" fill="white"/>
<path d="M14.539 23.856C15.0913 23.856 15.539 23.4082 15.539 22.856C15.539 22.3037 15.0913 21.856 14.539 21.856C13.9867 21.856 13.539 22.3037 13.539 22.856C13.539 23.4082 13.9867 23.856 14.539 23.856Z" fill="white"/>
</svg>
