<svg width="61" height="60" viewBox="0 0 61 60" fill="none" xmlns="http://www.w3.org/2000/svg">
<path d="M60.8052 31.9672C60.1406 28.8245 56.8246 27.4973 52.6009 27.147C53.1648 23.6506 52.5322 20.069 50.8025 16.9642C49.1076 13.9148 46.3933 11.5349 43.1189 10.2273C45.4585 11.7338 47.3414 13.8332 48.569 16.304C49.819 18.813 50.3777 21.6005 50.1893 24.3883C50.1408 25.1024 49.8347 25.7761 49.3261 26.2881C48.8292 26.7899 48.1598 27.0914 47.4488 27.1335H46.4554C44.0836 27.1271 41.7936 26.2805 40.0051 24.7487C39.7433 24.5281 39.533 24.2547 39.3884 23.947C39.238 23.6372 39.1551 23.2999 39.1452 22.9567C39.0664 20.6324 39.0253 17.3145 40.0427 14.6535C40.4417 13.6122 40.9133 12.5993 41.4541 11.6219C42.5571 9.60081 43.8725 8.07828 45.253 7.62017C54.0739 4.65595 54.2555 24.0582 54.2555 24.0582C54.2555 24.0582 56.787 7.4888 47.4043 4.34605C44.4069 3.33552 41.5808 5.61932 39.1624 9.17639C36.5089 6.89679 33.1124 5.62797 29.589 5.60016C26.0657 5.57235 22.6489 6.78738 19.9586 9.02481C22.3797 7.70756 25.1298 7.08905 27.8925 7.24041C30.6552 7.39176 33.3184 8.30684 35.5758 9.88039C36.1727 10.3044 36.5956 10.9246 36.7679 11.6286C36.9434 12.3403 36.8597 13.09 36.5315 13.7474L36.2746 14.2695C35.2018 16.4971 33.4613 18.3485 31.287 19.5748C31.05 19.7093 30.7812 19.7801 30.5076 19.7801C30.234 19.7801 29.9653 19.7093 29.7283 19.5748C27.5668 18.3486 24.1104 16.2434 22.3359 13.936C21.64 13.0479 21.007 12.1138 20.4416 11.1402C19.3043 9.15281 18.6671 7.21933 18.9754 5.75069C20.9383 -3.50915 37.4222 6.10774 37.4222 6.10774C37.4222 6.10774 24.6619 -4.47926 17.2695 2.22393C14.9093 4.36626 15.4128 7.99407 17.2044 11.9318C13.8696 13.1763 11.0824 15.5286 9.32557 18.5811C7.53275 21.6827 6.84776 25.2853 7.37984 28.8144C7.48512 26.0101 8.34443 23.2834 9.87023 20.912C11.3752 18.5747 13.5047 16.6893 16.026 15.4619C16.6654 15.1545 17.399 15.0943 18.0813 15.2935C18.7727 15.5004 19.3635 15.9484 19.7428 16.5533C19.8113 16.6678 19.8832 16.779 19.9586 16.8901C21.4413 19.1994 22.3865 21.8024 22.7264 24.5129C22.7753 24.8808 22.7121 25.2548 22.5449 25.5874C22.3816 25.917 22.1199 26.1897 21.7947 26.3689C19.3968 27.6624 15.2861 29.323 12.4805 29.8013C11.3982 29.996 10.3022 30.1086 9.20225 30.1382C7.03728 30.1853 5.16006 29.8317 4.08443 28.8919C-2.84209 22.7748 12.6724 12.7806 13.1725 12.4842C12.7477 12.6627 -1.97542 18.9954 0.223801 28.6763C0.92947 31.7752 4.20433 33.0553 8.38353 33.355C7.90871 36.7985 8.58561 40.3004 10.3121 43.3324C12.0051 46.3118 14.675 48.6391 17.8861 49.9345C15.5492 48.422 13.67 46.3182 12.4463 43.8444C11.2008 41.3341 10.6457 38.5469 10.8362 35.7601C10.8927 35.119 11.175 34.5173 11.6344 34.059C12.0909 33.6095 12.7018 33.344 13.3472 33.3146L14.4365 33.227C16.6831 33.0184 18.9483 33.3192 21.0582 34.1062H21.137C21.469 34.234 21.7535 34.4585 21.9523 34.7496C22.158 35.0481 22.27 35.3995 22.2743 35.7601C22.3325 38.502 22.1852 43.0595 21.1781 45.7644C20.7947 46.8164 20.3368 47.8406 19.8078 48.8296C18.7493 50.7867 17.4921 52.3126 16.1459 52.7539C7.41752 55.8663 6.89683 36.4877 6.89683 36.4877C6.89683 36.4877 4.62224 53.0975 14.0563 56.0853C17.0708 57.0318 19.7941 54.7648 22.1544 51.2145C24.8104 53.3902 28.1601 54.578 31.617 54.57C35.074 54.562 38.4179 53.3587 41.0636 51.1707C38.6941 52.4567 36.0095 53.0743 33.3058 52.9554C30.6021 52.8366 27.9842 51.9858 25.7409 50.497C25.1349 50.0839 24.7016 49.4688 24.5214 48.7656C24.333 48.0569 24.4046 47.3055 24.7235 46.6435L25.0661 45.9227C25.5624 44.8569 26.2131 43.8675 26.9981 42.9854C27.7711 42.0918 28.667 41.3084 29.6598 40.6578C29.9127 40.4958 30.2056 40.4042 30.5072 40.393C30.8088 40.3817 31.1079 40.4511 31.3726 40.5938C33.6472 41.7997 37.2303 43.8949 39.0493 46.1888C39.7527 47.0638 40.3937 47.9855 40.9676 48.9475C42.1049 50.8844 42.7352 52.7673 42.4578 54.172C40.6319 63.4621 24.0007 54.108 24.0007 54.108C24.0007 54.108 36.9015 64.4963 44.1911 57.6853C46.5068 55.5194 45.9587 51.9353 44.1466 48.0515C47.3981 46.7612 50.0999 44.4113 51.7993 41.3955C53.5364 38.3284 54.1985 34.7843 53.6834 31.3104C53.584 34.0658 52.7577 36.7484 51.2855 39.0949C49.842 41.4064 47.7927 43.2935 45.3524 44.5585C44.7048 44.8843 43.9556 44.9565 43.2559 44.7606C42.5452 44.5615 41.9349 44.1102 41.5431 43.494L41.4849 43.4132C39.9049 40.9831 38.9633 38.2052 38.7444 35.3289C38.7151 35.0051 38.7818 34.6799 38.9363 34.3925C39.0853 34.1084 39.3166 33.874 39.6008 33.7188C42.3672 32.2949 45.3293 31.2737 48.3943 30.6872C49.4863 30.5089 50.5899 30.4076 51.6966 30.3841C53.9266 30.3841 55.8552 30.7445 56.9343 31.7315C63.6792 37.8519 48.4697 47.4082 47.6167 47.9471C48.4765 47.6136 62.8263 41.5336 60.8052 31.9672ZM32.5784 31.2262L30.5025 32.4523L28.4471 31.2262V28.7841L30.5231 27.558L32.599 28.7841L32.5784 31.2262Z" fill="white"/>
</svg>
