<svg width="396" height="112" viewBox="0 0 396 112" fill="none" xmlns="http://www.w3.org/2000/svg">
<path d="M112.639 59.6722C111.408 53.8057 105.265 51.3283 97.441 50.6744C98.4856 44.1477 97.3138 37.4621 94.1095 31.6665C90.9698 25.9743 85.9416 21.5318 79.876 19.091C84.21 21.9032 87.698 25.8219 89.9721 30.4341C92.2876 35.1176 93.3225 40.321 92.9736 45.5247C92.8839 46.8578 92.3168 48.1154 91.3745 49.071C90.4541 50.0078 89.2141 50.5705 87.897 50.6493H86.0568C81.6631 50.6373 77.4209 49.0569 74.1077 46.1975C73.6228 45.7858 73.2332 45.2754 72.9655 44.7011C72.6867 44.1228 72.5332 43.4931 72.5149 42.8525C72.369 38.5139 72.2928 32.3205 74.1775 27.3531C74.9166 25.4095 75.7902 23.5187 76.792 21.6942C78.8353 17.9215 81.2721 15.0795 83.8294 14.2243C100.17 8.6911 100.506 44.9085 100.506 44.9085C100.506 44.9085 105.196 13.9791 87.8145 8.11262C82.262 6.2263 77.0268 10.4894 72.5467 17.1293C67.6313 12.874 61.3394 10.5056 54.8125 10.4536C48.2856 10.4017 41.9561 12.6698 36.9724 16.8463C41.4575 14.3875 46.5519 13.2329 51.6697 13.5154C56.7876 13.798 61.721 15.5061 65.9027 18.4434C67.0085 19.2349 67.7918 20.3925 68.111 21.7067C68.4361 23.0353 68.2811 24.4346 67.6731 25.6617L67.1972 26.6363C65.2099 30.7946 61.9857 34.2504 57.9578 36.5395C57.5189 36.7906 57.021 36.9228 56.5141 36.9228C56.0073 36.9228 55.5094 36.7906 55.0705 36.5395C51.0663 34.2508 44.6635 30.321 41.3764 26.0139C40.0872 24.3561 38.9147 22.6123 37.8672 20.795C35.7604 17.0852 34.5801 13.4761 35.1512 10.7346C38.7873 -6.55041 69.323 11.4011 69.323 11.4011C69.323 11.4011 45.6851 -8.36128 31.991 4.15134C27.6188 8.15035 28.5516 14.9223 31.8704 22.2726C25.6928 24.5958 20.5297 28.9866 17.2752 34.6847C13.9541 40.4744 12.6852 47.1993 13.6708 53.7868C13.8659 48.5522 15.4577 43.4624 18.2842 39.0358C21.0721 34.6728 25.017 31.1534 29.6875 28.8622C30.872 28.2883 32.2309 28.1761 33.495 28.5478C34.7757 28.9341 35.8701 29.7703 36.5726 30.8994C36.6996 31.1132 36.8328 31.3207 36.9724 31.5282C39.7191 35.8388 41.47 40.6978 42.0998 45.7574C42.1903 46.4442 42.0733 47.1423 41.7635 47.7632C41.4611 48.3784 40.9762 48.8874 40.3737 49.2219C35.9317 51.6364 28.3168 54.7363 23.1197 55.6292C21.1146 55.9926 19.0843 56.2028 17.0468 56.2579C13.0363 56.346 9.5588 55.6858 7.56624 53.9315C-5.26486 42.5129 23.475 23.8572 24.4015 23.3038C23.6146 23.6371 -3.65939 35.4581 0.414582 53.529C1.72181 59.3138 7.78834 61.7031 15.5301 62.2627C14.6506 68.6905 15.9045 75.2273 19.1028 80.8871C22.2389 86.4487 27.1848 90.7929 33.1332 93.211C28.8042 90.3878 25.3231 86.4607 23.0562 81.8428C20.749 77.157 19.7207 71.9542 20.0737 66.7522C20.1782 65.5554 20.7011 64.4323 21.5523 63.5769C22.3979 62.7377 23.5296 62.2421 24.7251 62.1873L26.7431 62.0238C30.9047 61.6344 35.101 62.1958 39.0094 63.6649H39.1554C39.7705 63.9035 40.2974 64.3225 40.6656 64.8659C41.0468 65.4231 41.2542 66.0791 41.2621 66.7522C41.37 71.8704 41.0972 80.3778 39.2315 85.4268C38.5214 87.3905 37.6732 89.3025 36.6932 91.1487C34.7324 94.8018 32.4035 97.6502 29.9096 98.4739C13.7406 104.284 12.7761 68.1103 12.7761 68.1103C12.7761 68.1103 8.56252 99.1153 26.0387 104.692C31.623 106.459 36.6678 102.228 41.04 95.6004C45.9603 99.6618 52.1654 101.879 58.5693 101.864C64.9731 101.849 71.1676 99.6029 76.0685 95.5187C71.6792 97.9192 66.7061 99.0721 61.6976 98.8502C56.689 98.6283 51.8396 97.0402 47.684 94.2611C46.5613 93.49 45.7587 92.3418 45.425 91.0292C45.0759 89.7062 45.2085 88.3037 45.7993 87.0679L46.4339 85.7223C47.3532 83.7329 48.5588 81.8861 50.0129 80.2394C51.4449 78.5713 53.1044 77.109 54.9436 75.8946C55.4121 75.5921 55.9546 75.4213 56.5133 75.4002C57.0721 75.3792 57.6261 75.5087 58.1164 75.7751C62.33 78.0261 68.9677 81.9371 72.3373 86.2191C73.6403 87.8523 74.8277 89.573 75.8909 91.3687C77.9977 94.9842 79.1653 98.499 78.6513 101.121C75.269 118.463 44.4604 101.002 44.4604 101.002C44.4604 101.002 68.3585 120.393 81.8622 107.679C86.1519 103.636 85.1366 96.946 81.7797 89.6962C87.803 87.2876 92.808 82.9011 95.9561 77.2716C99.1741 71.5464 100.401 64.9307 99.4463 58.4461C99.2622 63.5894 97.7314 68.597 95.0042 72.9771C92.3302 77.2919 88.5339 80.8146 84.0134 83.1758C82.8137 83.784 81.4259 83.9188 80.1298 83.5531C78.8132 83.1815 77.6826 82.3391 76.957 81.1889L76.8491 81.038C73.9223 76.5017 72.1779 71.3164 71.7725 65.9474C71.7182 65.3429 71.8416 64.7358 72.1278 64.1994C72.404 63.669 72.8323 63.2315 73.3589 62.9418C78.4835 60.2838 83.9707 58.3775 89.6484 57.2828C91.6713 56.9499 93.7156 56.7608 95.7657 56.7169C99.8968 56.7169 103.469 57.3897 105.468 59.232C117.963 70.6569 89.7881 88.4952 88.208 89.5013C89.8007 88.8788 116.383 77.5294 112.639 59.6722ZM60.3501 58.2889L56.5046 60.5776L52.6972 58.2889V53.7303L56.5427 51.4415L60.3882 53.7303L60.3501 58.2889Z" fill="white"/>
<path d="M185.47 56.68C185.47 41.01 195.67 30.19 210.35 30.19C225.35 30.19 234.82 40.19 234.82 55.77V59.51L197.2 59.62C198.11 68.41 202.76 72.87 210.96 72.87C217.74 72.87 222.18 70.24 223.6 65.48H235.03C232.91 76.41 223.8 82.97 210.76 82.97C195.86 82.96 185.47 72.15 185.47 56.68ZM197.47 51.68H222.55C222.55 44.8 217.8 40.25 210.41 40.25C203.02 40.25 198.68 44.25 197.47 51.72V51.68Z" fill="white"/>
<path d="M242.72 81.93L259.91 57.45L234.74 24H249.11L268.11 49L278.72 32H292.58L275.58 57.26L301.42 94.01H287.28L267.28 65.46L256.76 81.94L242.72 81.93Z" fill="white"/>
<path d="M346.86 30.93V80.93H335.47L334.56 74.27C331.56 79.01 325.05 82.27 318.37 82.27C306.85 82.27 300.06 74.49 300.06 62.27V30.97H312.39V57.87C312.39 67.38 316.13 71.19 323.01 71.19C330.79 71.19 334.54 66.65 334.54 57.19V30.93H346.86Z" fill="white"/>
<path d="M366.12 65.68C366.22 70.04 369.45 72.77 375.12 72.77C380.79 72.77 384.01 70.44 384.01 66.77C384.01 64.27 382.69 62.42 378.25 61.41L369.25 59.28C360.25 57.28 355.93 53.02 355.93 45.03C355.93 35.21 364.25 29.35 375.75 29.35C386.97 29.35 394.56 35.82 394.66 45.53H382.86C382.76 41.28 379.93 38.53 375.18 38.53C370.43 38.53 367.49 40.76 367.49 44.53C367.49 47.36 369.72 49.19 373.96 50.19L382.96 52.32C391.36 54.24 395.6 58.08 395.6 65.76C395.6 75.88 387.01 82.15 374.67 82.15C362.33 82.15 354.35 75.49 354.35 65.66L366.12 65.68Z" fill="white"/>
<path d="M141.62 72.68H130.01V82.59H141.62V72.68Z" fill="white" stroke="white" stroke-width="0.14" stroke-miterlimit="10"/>
<path d="M178.19 53.3V69.88H166.53V53.68C166.568 50.4762 165.395 47.3761 163.247 44.9994C161.098 42.6227 158.131 41.1444 154.94 40.86H153.17C149.98 41.1467 147.016 42.6261 144.87 45.0026C142.723 47.379 141.552 50.4778 141.59 53.68V69.88H130V53.3C130.128 46.9946 132.723 40.9908 137.228 36.5769C141.733 32.163 147.788 29.6909 154.095 29.6909C160.402 29.6909 166.457 32.163 170.962 36.5769C175.467 40.9908 178.062 46.9946 178.19 53.3Z" fill="white" stroke="white" stroke-width="0.14" stroke-miterlimit="10"/>
<path d="M178.19 72.68H166.57V82.59H178.19V72.68Z" fill="white" stroke="white" stroke-width="0.14" stroke-miterlimit="10"/>
</svg>
